<svg width="35" height="28" viewBox="0 0 35 28" fill="none" xmlns="http://www.w3.org/2000/svg">
<path d="M34.1866 3.42999C33.1428 3.89249 26.7166 8.43875 25.5378 8.58C26.7403 7.86 31.5803 2.35249 32.0153 0.992493C30.8903 1.65999 25.7266 6.51 24.4003 6.77C23.3378 5.64 21.8253 4.9325 20.1503 4.9325C16.9353 4.9325 14.3278 7.54 14.3278 10.7575C14.3278 11.2125 14.3803 11.655 14.4778 12.0825C9.63655 11.8387 9.18405 5.76499 6.31155 2.24249C5.81155 3.10499 3.9528 5.05249 3.9528 6.11749C3.9528 8.13749 3.89155 9.71375 5.4528 10.7575C4.4978 10.7262 2.4253 9.01624 1.6403 8.58L2.4528 12.0825C2.4528 14.9037 3.64655 15.4575 6.31155 15.9925C5.82155 16.125 4.8878 16.68 4.3578 16.68C3.9828 16.68 5.4528 16.68 1.6403 16.68C2.38155 18.9925 6.8753 19.51 9.42405 19.555C9.42405 22.3675 9.42405 22.055 6.7328 24.2425C6.2628 24.2425 0.955303 25.4375 0.499053 25.3837C3.07655 27.0375 6.13655 28 9.42405 28C20.1366 28 25.9928 19.1275 25.9928 11.4325C25.9928 11.1825 25.9866 10.93 25.9753 10.68C27.1128 9.85749 28.8916 9.22124 29.6703 8.05499L34.1866 3.42999Z" fill="#1DA1F2"/>
</svg>
